<?xml version="1.0" standalone="no"?>
<!DOCTYPE svg PUBLIC "-//W3C//DTD SVG 20010904//EN"
 "http://www.w3.org/TR/2001/REC-SVG-20010904/DTD/svg10.dtd">
<svg version="1.0" xmlns="http://www.w3.org/2000/svg"
 width="360.000000pt" height="360.000000pt" viewBox="0 0 360.000000 360.000000"
 preserveAspectRatio="xMidYMid meet">
<metadata>
Created by potrace 1.11, written by Peter Selinger 2001-2013
</metadata>
<g transform="translate(0.000000,360.000000) scale(0.100000,-0.100000)"
fill="#000000" stroke="none">
<path d="M1137 3494 c-1 -1 -45 -4 -98 -8 -53 -4 -104 -8 -115 -10 -17 -3 -38
-6 -154 -22 -156 -22 -465 -100 -650 -163 l-115 -39 85 -1 c111 -2 281 -25
375 -51 271 -76 442 -233 609 -560 59 -114 156 -346 261 -620 152 -397 278
-592 510 -789 161 -137 408 -251 640 -297 100 -19 351 -27 419 -13 95 21 85 7
81 117 -16 365 -121 690 -323 1002 -60 93 -120 173 -177 235 -21 22 -56 60
-79 85 l-41 45 39 -35 c189 -172 333 -339 468 -545 77 -116 200 -353 233 -445
66 -188 116 -390 132 -535 10 -90 10 -451 -1 -535 -4 -36 -14 -91 -21 -122 -7
-32 -10 -58 -8 -58 18 0 100 293 127 450 2 14 7 41 10 60 14 79 17 123 22 295
6 179 6 180 33 205 76 71 140 185 172 305 31 118 33 315 5 445 -3 14 -9 41
-12 60 -23 121 -131 366 -231 519 -161 248 -402 482 -673 655 -94 60 -331 176
-430 211 -77 27 -230 74 -263 81 -10 2 -26 5 -35 8 -9 3 -33 8 -52 11 -19 3
-54 10 -78 16 -24 5 -67 12 -95 15 -29 3 -55 8 -58 10 -16 10 -501 27 -512 18z"/>
</g>
</svg>
