<?xml version="1.0" standalone="no"?>
<!DOCTYPE svg PUBLIC "-//W3C//DTD SVG 20010904//EN"
 "http://www.w3.org/TR/2001/REC-SVG-20010904/DTD/svg10.dtd">
<svg version="1.0" xmlns="http://www.w3.org/2000/svg"
 width="360.000000pt" height="360.000000pt" viewBox="0 0 360.000000 360.000000"
 preserveAspectRatio="xMidYMid meet">
<metadata>
Created by potrace 1.11, written by Peter Selinger 2001-2013
</metadata>
<g transform="translate(0.000000,360.000000) scale(0.100000,-0.100000)"
fill="#000000" stroke="none">
<path d="M2157 3494 c-1 -1 -42 -5 -92 -8 -89 -6 -107 -8 -215 -26 -518 -85
-954 -304 -1305 -655 -226 -225 -373 -451 -466 -713 -53 -151 -71 -253 -73
-402 -1 -147 5 -197 35 -289 32 -98 95 -201 156 -254 l32 -29 1 -121 c1 -179
7 -248 36 -412 12 -69 38 -188 48 -220 1 -5 6 -23 10 -40 5 -16 19 -65 33
-107 25 -77 40 -103 29 -50 -3 15 -8 47 -11 72 -4 25 -10 77 -15 115 -13 107
-5 465 14 575 64 377 212 716 451 1035 95 125 111 144 239 275 109 112 186
182 115 105 -81 -88 -90 -99 -154 -180 -152 -195 -290 -476 -351 -715 -17 -68
-17 -69 -30 -140 -4 -25 -8 -47 -9 -50 -5 -22 -17 -161 -20 -232 -3 -97 -6
-93 73 -105 61 -9 282 -10 347 -1 189 27 342 77 495 160 172 94 319 218 441
373 116 147 177 265 298 575 183 470 265 650 364 797 198 292 443 411 872 422
l90 3 -100 34 c-136 47 -444 131 -500 135 -2 1 -31 7 -62 14 -32 7 -80 16
-108 20 -27 3 -80 10 -116 15 -110 16 -217 22 -387 24 -89 1 -164 1 -165 0z"/>
</g>
</svg>
